<svg xmlns="http://www.w3.org/2000/svg" width="220.895" height="38.027" viewBox="0 0 220.895 38.027">
  <g id="Group_4" data-name="Group 4" transform="translate(-490.001 -3529.972)">
    <g id="granit">
      <text id="GRANIT-2" data-name="GRANIT" transform="translate(538.936 3549.176)" fill="#292929" font-size="19" font-family="GothamPro-Bold, Gotham Pro" font-weight="700" letter-spacing="0.1em"><tspan x="0" y="0">GRANIT</tspan></text>
      <path id="Color_Overlay" data-name="Color Overlay" d="M546.935,3549.4a6.843,6.843,0,0,1-5.044-1.938,6.936,6.936,0,0,1,5.025-11.818,8.414,8.414,0,0,1,2.926.447,7.784,7.784,0,0,1,2.3,1.377L550.3,3539.7a6.315,6.315,0,0,0-1.615-1.026,4.85,4.85,0,0,0-1.862-.323,3.52,3.52,0,0,0-2.708,1.226,4.542,4.542,0,0,0,.019,5.976,3.81,3.81,0,0,0,2.9,1.2,4.628,4.628,0,0,0,2.755-.8v-1.9H546.84v-2.527h5.776v5.776A8.541,8.541,0,0,1,546.935,3549.4Zm10.393-.228v-13.3h6.08a5.246,5.246,0,0,1,3.876,1.349,4.159,4.159,0,0,1,1.14,3.078,4.045,4.045,0,0,1-2.85,4.123l3.249,4.75H565.4l-2.888-4.256h-2.261v4.256Zm2.926-6.84h2.964a2.407,2.407,0,0,0,1.653-.522,1.774,1.774,0,0,0,.589-1.4,1.7,1.7,0,0,0-.608-1.416,2.647,2.647,0,0,0-1.691-.484h-2.907Zm11.571,6.84,5.7-13.4h2.7l5.7,13.4h-3.059l-1.216-2.983h-5.624l-1.216,2.983Zm5.244-5.567H580.6l-1.767-4.313Zm12.806,5.567v-13.3h2.7l6.232,8.189v-8.189h2.888v13.3H599.2l-6.441-8.455v8.455Zm17.043,0v-13.3h2.926v13.3Zm11.248,0v-10.6h-4.047v-2.7h11.02v2.7h-4.047v10.6Z" fill="#fff"/>
    </g>
    <g id="Доставка_нерудных_материалов" data-name="Доставка нерудных материалов">
      <text id="Доставка_нерудных_материалов-2" data-name="Доставка нерудных материалов" transform="translate(539.896 3565.15)" fill="#969696" font-size="10.45" font-family="GothamPro-Light, Gotham Pro" font-weight="300"><tspan x="0" y="0">Доставка нерудных материалов</tspan></text>
      <path id="Color_Overlay-2" data-name="Color Overlay" d="M540,3566.822v-2.174h.784a5.856,5.856,0,0,0,.867-2.168,14.534,14.534,0,0,0,.3-3.1v-1.547h4.483v6.813h.993l-.1,2.174h-.46v-1.672h-6.3l-.1,1.672Zm1.411-2.174h4.483v-6.312h-3.407v1.442a13.258,13.258,0,0,1-.287,2.811A5.862,5.862,0,0,1,541.411,3564.648Zm11.626-.2a2.731,2.731,0,0,1-3.908.005,2.861,2.861,0,0,1,.01-3.935,2.732,2.732,0,0,1,3.908-.005,2.861,2.861,0,0,1-.01,3.934Zm-1.938.345a2.036,2.036,0,0,0,1.531-.679,2.4,2.4,0,0,0,0-3.266,2.067,2.067,0,0,0-1.552-.674,2.039,2.039,0,0,0-1.536.674,2.417,2.417,0,0,0,0,3.271A2.062,2.062,0,0,0,551.1,3564.795Zm6.657.481a2.576,2.576,0,0,1-1.933-.815,2.867,2.867,0,0,1,.005-3.945,2.573,2.573,0,0,1,1.928-.82,2.733,2.733,0,0,1,2.121.993l-.355.366a2.5,2.5,0,0,0-1.777-.878,2,2,0,0,0-1.52.679,2.417,2.417,0,0,0,.005,3.266,2.062,2.062,0,0,0,1.557.674,2.364,2.364,0,0,0,1.766-.909l.376.334A2.82,2.82,0,0,1,557.755,3565.275Zm4.953-.125v-4.87h-2v-.46h4.5v.46h-2v4.87Zm5.413.125a2.374,2.374,0,0,1-1.468-.444,1.6,1.6,0,0,1,.047-2.524,2.832,2.832,0,0,1,1.693-.46,6.862,6.862,0,0,1,1.766.23v-.23a1.555,1.555,0,0,0-.46-1.212,1.858,1.858,0,0,0-1.3-.418,3.638,3.638,0,0,0-1.672.428l-.188-.449a4.505,4.505,0,0,1,1.891-.46,2.277,2.277,0,0,1,1.682.585,2.034,2.034,0,0,1,.543,1.5v3.323h-.5v-.888A2.354,2.354,0,0,1,568.121,3565.275Zm.031-.481a2.234,2.234,0,0,0,1.426-.465,1.436,1.436,0,0,0,.59-1.176v-.606a7.3,7.3,0,0,0-1.808-.24,2.123,2.123,0,0,0-1.291.34,1.093,1.093,0,0,0-.455.925,1.073,1.073,0,0,0,.418.9A1.778,1.778,0,0,0,568.153,3564.795Zm4.347.355v-5.33h2.435a2.009,2.009,0,0,1,1.254.361,1.156,1.156,0,0,1,.47.967,1.271,1.271,0,0,1-.9,1.223,1.839,1.839,0,0,1,.867.47,1.161,1.161,0,0,1,.334.857,1.26,1.26,0,0,1-.523,1.055,2.238,2.238,0,0,1-1.39.4Zm.512-.46h1.975a1.734,1.734,0,0,0,1.055-.287.919.919,0,0,0,.387-.779.825.825,0,0,0-.4-.731,2.145,2.145,0,0,0-1.165-.261h-1.85Zm0-2.487h1.85a1.487,1.487,0,0,0,.925-.266.9.9,0,0,0,.35-.758.779.779,0,0,0-.324-.653,1.5,1.5,0,0,0-.92-.246h-1.881Zm5.549,2.947v-5.33h.512v3.417l3.3-3.417h.679l-2.33,2.362,2.4,2.968h-.648l-2.111-2.6-1.3,1.306v1.3Zm7.43.125a2.374,2.374,0,0,1-1.468-.444,1.6,1.6,0,0,1,.047-2.524,2.832,2.832,0,0,1,1.693-.46,6.862,6.862,0,0,1,1.766.23v-.23a1.555,1.555,0,0,0-.46-1.212,1.858,1.858,0,0,0-1.3-.418,3.638,3.638,0,0,0-1.672.428l-.188-.449a4.506,4.506,0,0,1,1.891-.46,2.277,2.277,0,0,1,1.682.585,2.034,2.034,0,0,1,.543,1.5v3.323h-.5v-.888A2.354,2.354,0,0,1,585.991,3565.275Zm.031-.481a2.234,2.234,0,0,0,1.426-.465,1.436,1.436,0,0,0,.59-1.176v-.606a7.3,7.3,0,0,0-1.808-.24,2.123,2.123,0,0,0-1.291.34,1.093,1.093,0,0,0-.455.925,1.073,1.073,0,0,0,.418.9A1.778,1.778,0,0,0,586.022,3564.795Zm7.482.355v-5.33h.512v2.372h3.543v-2.372h.512v5.33h-.512v-2.5h-3.543v2.5Zm8.757.125a2.49,2.49,0,0,1-1.844-.784,2.76,2.76,0,0,1-.768-2.017,2.84,2.84,0,0,1,.726-1.975,2.33,2.33,0,0,1,1.8-.8,2.21,2.21,0,0,1,1.771.794,2.977,2.977,0,0,1,.674,2,1.732,1.732,0,0,1-.01.209h-4.42a2.259,2.259,0,0,0,.674,1.531,1.991,1.991,0,0,0,1.416.57,2.434,2.434,0,0,0,1.829-.836l.355.314A2.91,2.91,0,0,1,602.262,3565.275Zm-2.069-3.041h3.877a2.535,2.535,0,0,0-.554-1.473,1.664,1.664,0,0,0-1.358-.6,1.768,1.768,0,0,0-1.338.59A2.377,2.377,0,0,0,600.193,3562.234Zm5.925,4.588v-7h.512v1.191a2.562,2.562,0,0,1,2.195-1.317,2.507,2.507,0,0,1,1.808.768,2.993,2.993,0,0,1,0,4.039,2.5,2.5,0,0,1-1.808.773A2.528,2.528,0,0,1,606.63,3564v2.822Zm2.654-2.038a1.983,1.983,0,0,0,1.494-.622,2.611,2.611,0,0,0-.016-3.339,1.974,1.974,0,0,0-1.479-.637,2.085,2.085,0,0,0-1.521.653,2.244,2.244,0,0,0-.653,1.656,2.214,2.214,0,0,0,.653,1.641A2.093,2.093,0,0,0,608.772,3564.784Zm4.891,2.069a2.6,2.6,0,0,1-1.055-.23l.178-.449a2.049,2.049,0,0,0,.909.2,1.022,1.022,0,0,0,.721-.282,2.89,2.89,0,0,0,.6-.972l-2.56-5.3h.6l2.215,4.765,1.923-4.765h.564l-2.309,5.518a3.025,3.025,0,0,1-.768,1.165A1.532,1.532,0,0,1,613.663,3566.853Zm4.671-.2v-1.965h.7a7.263,7.263,0,0,0,.784-3.741v-1.129h3.574v4.87h.857l-.1,1.965h-.418v-1.5h-4.859l-.1,1.5Zm1.264-1.965h3.281v-4.41h-2.571v.961a9.687,9.687,0,0,1-.193,1.975A4.834,4.834,0,0,1,619.6,3564.69Zm5.936.46v-5.33h.512v2.372h3.543v-2.372h.512v5.33h-.512v-2.5h-3.543v2.5Zm6.51,0v-5.33h.512v2.048h1.588a2.542,2.542,0,0,1,1.463.392,1.328,1.328,0,0,1,.575,1.176,1.578,1.578,0,0,1-.533,1.244,2.054,2.054,0,0,1-1.411.47Zm.512-.46h1.6a1.654,1.654,0,0,0,1.076-.324,1.108,1.108,0,0,0,.4-.909.97.97,0,0,0-.408-.831,1.841,1.841,0,0,0-1.108-.3h-1.557Zm4.692.46v-5.33h.512v5.33Zm1.954,0,2.184-2.717-2.1-2.613h.637l1.8,2.257,1.8-2.257h.617l-2.1,2.6,2.184,2.728h-.637l-1.881-2.372-1.881,2.372Zm9.593,0v-5.33h.46l2.174,3.062,2.174-3.062h.46v5.33h-.512v-4.441l-2.142,2.947-2.121-2.947v4.441Zm8.83.125a2.374,2.374,0,0,1-1.468-.444,1.6,1.6,0,0,1,.047-2.524,2.832,2.832,0,0,1,1.693-.46,6.862,6.862,0,0,1,1.766.23v-.23a1.555,1.555,0,0,0-.46-1.212,1.858,1.858,0,0,0-1.3-.418,3.638,3.638,0,0,0-1.672.428l-.188-.449a4.506,4.506,0,0,1,1.891-.46,2.277,2.277,0,0,1,1.682.585,2.034,2.034,0,0,1,.543,1.5v3.323h-.5v-.888A2.354,2.354,0,0,1,657.626,3565.275Zm.031-.481a2.235,2.235,0,0,0,1.426-.465,1.436,1.436,0,0,0,.59-1.176v-.606a7.3,7.3,0,0,0-1.808-.24,2.123,2.123,0,0,0-1.291.34,1.093,1.093,0,0,0-.455.925,1.074,1.074,0,0,0,.418.9A1.779,1.779,0,0,0,657.657,3564.795Zm5.685.355v-4.87h-2v-.46h4.5v.46h-2v4.87Zm6.04.125a2.49,2.49,0,0,1-1.844-.784,2.76,2.76,0,0,1-.768-2.017,2.84,2.84,0,0,1,.726-1.975,2.33,2.33,0,0,1,1.8-.8,2.21,2.21,0,0,1,1.771.794,2.977,2.977,0,0,1,.674,2,1.732,1.732,0,0,1-.01.209h-4.42a2.259,2.259,0,0,0,.674,1.531,1.991,1.991,0,0,0,1.416.57,2.434,2.434,0,0,0,1.829-.836l.355.314A2.91,2.91,0,0,1,669.382,3565.275Zm-2.069-3.041h3.877a2.535,2.535,0,0,0-.554-1.473,1.664,1.664,0,0,0-1.358-.6,1.768,1.768,0,0,0-1.338.59A2.377,2.377,0,0,0,667.313,3562.234Zm5.925,4.588v-7h.512v1.191a2.562,2.562,0,0,1,2.195-1.317,2.507,2.507,0,0,1,1.808.768,2.993,2.993,0,0,1,0,4.039,2.5,2.5,0,0,1-1.808.773A2.528,2.528,0,0,1,673.75,3564v2.822Zm2.654-2.038a1.983,1.983,0,0,0,1.494-.622,2.611,2.611,0,0,0-.016-3.339,1.974,1.974,0,0,0-1.479-.637,2.085,2.085,0,0,0-1.52.653,2.244,2.244,0,0,0-.653,1.656,2.214,2.214,0,0,0,.653,1.641A2.093,2.093,0,0,0,675.892,3564.784Zm4.243.366v-5.33h.512v4.65l3.616-4.65h.512v5.33h-.512v-4.65l-3.616,4.65Zm8.2.125a2.374,2.374,0,0,1-1.468-.444,1.6,1.6,0,0,1,.047-2.524,2.832,2.832,0,0,1,1.693-.46,6.862,6.862,0,0,1,1.766.23v-.23a1.555,1.555,0,0,0-.46-1.212,1.858,1.858,0,0,0-1.3-.418,3.638,3.638,0,0,0-1.672.428l-.188-.449a4.505,4.505,0,0,1,1.891-.46,2.277,2.277,0,0,1,1.682.585,2.034,2.034,0,0,1,.543,1.5v3.323h-.5v-.888A2.354,2.354,0,0,1,688.338,3565.275Zm.031-.481a2.234,2.234,0,0,0,1.426-.465,1.436,1.436,0,0,0,.59-1.176v-.606a7.3,7.3,0,0,0-1.808-.24,2.123,2.123,0,0,0-1.291.34,1.093,1.093,0,0,0-.455.925,1.073,1.073,0,0,0,.418.9A1.779,1.779,0,0,0,688.37,3564.795Zm4,.439a2.124,2.124,0,0,1-.585-.083l.094-.47a1.622,1.622,0,0,0,.408.073,1.025,1.025,0,0,0,.34-.047.883.883,0,0,0,.287-.193,1.019,1.019,0,0,0,.251-.46,7.44,7.44,0,0,0,.183-.815,10.951,10.951,0,0,0,.131-1.285q.042-.784.042-1.85v-.282h3.626v5.33h-.512v-4.87h-2.623v.146q0,1.3-.084,2.195a10.024,10.024,0,0,1-.209,1.406,1.953,1.953,0,0,1-.355.784,1.068,1.068,0,0,1-.444.35A1.726,1.726,0,0,1,692.372,3565.233Zm11.04-.784a2.731,2.731,0,0,1-3.908.005,2.861,2.861,0,0,1,.01-3.935,2.732,2.732,0,0,1,3.908-.005,2.861,2.861,0,0,1-.01,3.934Zm-1.938.345a2.036,2.036,0,0,0,1.531-.679,2.4,2.4,0,0,0,0-3.266,2.067,2.067,0,0,0-1.552-.674,2.039,2.039,0,0,0-1.536.674,2.417,2.417,0,0,0,0,3.271A2.062,2.062,0,0,0,701.474,3564.795Zm4.305.355v-5.33h2.435a2.009,2.009,0,0,1,1.254.361,1.156,1.156,0,0,1,.47.967,1.271,1.271,0,0,1-.9,1.223,1.839,1.839,0,0,1,.867.47,1.161,1.161,0,0,1,.334.857,1.26,1.26,0,0,1-.523,1.055,2.238,2.238,0,0,1-1.39.4Zm.512-.46h1.975a1.734,1.734,0,0,0,1.055-.287.919.919,0,0,0,.387-.779.825.825,0,0,0-.4-.731,2.145,2.145,0,0,0-1.165-.261h-1.85Zm0-2.487h1.85a1.487,1.487,0,0,0,.925-.266.9.9,0,0,0,.35-.758.779.779,0,0,0-.324-.653,1.5,1.5,0,0,0-.92-.246h-1.881Z" fill="#fff"/>
    </g>
    <path id="Фигура_1" data-name="Фигура 1" d="M492.63,3568c-1.66,0-2.63-1.116-2.63-3.229v-2.253a2.86,2.86,0,0,1,2.844-2.875h16.319c2.231,0,3.381,1.068,3.381,2.659v3.2c0,1.662-1.1,2.493-3.381,2.493Zm.376-5.1v1.847a.215.215,0,0,0,.214.216h16.1a.214.214,0,0,0,.213-.216V3562.9a.214.214,0,0,0-.213-.216h-16.1A.214.214,0,0,0,493.007,3562.9Zm21.647,1.3a.215.215,0,0,1-.214-.216V3562.9a.214.214,0,0,1,.214-.216h1.075a.216.216,0,0,0,.214-.217v-1.846a.216.216,0,0,0-.214-.217h-1.075a.214.214,0,0,1-.214-.216V3559.1a.215.215,0,0,1,.214-.216h11.595a.215.215,0,0,1,.214.216v1.087a.214.214,0,0,1-.214.216h-1.075a.216.216,0,0,0-.214.217v1.846a.216.216,0,0,0,.214.217h1.075a.214.214,0,0,1,.214.216v1.087a.215.215,0,0,1-.214.216Zm10.577-6.079a.21.21,0,0,1-.139-.052l-3.454-3.01a.21.21,0,0,0-.207-.041,2.772,2.772,0,0,1-.91.158,2.1,2.1,0,0,1-.886-.2.212.212,0,0,0-.225.027l-3.748,3.072a.215.215,0,0,1-.134.048l-.437,0a.244.244,0,0,1-.148-.433l3.82-3.131a.217.217,0,0,0,.043-.288,2.358,2.358,0,0,1-.391-1.351.752.752,0,1,1,1.5,0,1.137,1.137,0,0,0,.03.272.213.213,0,0,0,.343.115l0,0a.373.373,0,0,1,.482.008l.165.143a.212.212,0,0,0,.272.007.8.8,0,0,0,.277-.67.928.928,0,0,0-.8-.877.759.759,0,0,1-.627-.75v-1.939a.215.215,0,0,0-.214-.217H519.4a.215.215,0,0,1-.211-.174l-.966-4.886a.216.216,0,0,1,.211-.258h.658a.215.215,0,0,0,.214-.217v-4.412a.214.214,0,0,0-.4-.1l-8.59,16.714a.223.223,0,0,0-.023.1v.615a.216.216,0,0,1-.215.216H507.5a.216.216,0,0,0-.215.217v1.086a.214.214,0,0,1-.213.216H496.227a.214.214,0,0,1-.214-.216v-1.086a.216.216,0,0,0-.214-.217h-4.081a.215.215,0,0,1-.214-.216v-14a.215.215,0,0,1,.214-.217h10.844a.216.216,0,0,1,.214.217v7.055h0l-.85,2.312a.216.216,0,0,0,.2.292h1.193a.214.214,0,0,0,.174-.09l15.54-21.892a.213.213,0,0,1,.284-.06l3.116,1.9a.218.218,0,0,1,.076.292l-.919,1.627a.225.225,0,0,0-.028.108v9.539a.216.216,0,0,0,.214.217h.649a.215.215,0,0,1,.211.247l-.685,4.885a.214.214,0,0,1-.212.186h-.178v1.472a.216.216,0,0,0,.116.192,2.419,2.419,0,0,1,.712,3.747.218.218,0,0,0,.014.313l3.46,3.014a.216.216,0,0,1-.14.38Zm-18.16-9.011-1.452,2a.218.218,0,0,0,.066.316l3.237,1.888a.215.215,0,0,0,.3-.279l-1.786-3.891a.213.213,0,0,0-.367-.037Zm1.807-1.094,1.482,3.575a.213.213,0,0,0,.383.023l1-1.784a.217.217,0,0,0-.062-.282l-2.481-1.792a.21.21,0,0,0-.124-.042A.218.218,0,0,0,508.877,3548.017Zm-14.368-2.595v4.126a.215.215,0,0,0,.214.216h4.832a.216.216,0,0,0,.214-.216v-4.126a.215.215,0,0,0-.214-.216h-4.832A.214.214,0,0,0,494.51,3545.422Zm16.016-1.043-1.25,1.739-.009.013,2.508,1.651a.215.215,0,0,0,.316-.26l-1.193-3.093a.213.213,0,0,0-.373-.049Zm1.543-.845,1.14,3.087a.213.213,0,0,0,.392.022l.861-1.7a.217.217,0,0,0-.069-.277l-2-1.387a.211.211,0,0,0-.121-.039A.218.218,0,0,0,512.069,3543.534Zm8.339-7.458-.323.616a.223.223,0,0,0-.025.1v6.677a.216.216,0,0,0,.214.217h.323a.215.215,0,0,0,.214-.217v-7.294a.213.213,0,0,0-.217-.216A.207.207,0,0,0,520.408,3536.076Zm-6.394,3.344-1.208,1.78a.217.217,0,0,0,.061.3l1.815,1.175a.215.215,0,0,0,.326-.226l-.608-2.956a.213.213,0,0,0-.211-.173A.209.209,0,0,0,514.014,3539.42Zm1.323-1.191.622,2.86a.214.214,0,0,0,.4.057l.967-1.816a.217.217,0,0,0-.072-.284L515.663,3538a.212.212,0,0,0-.117-.036A.216.216,0,0,0,515.337,3538.229Zm2.035-4.088-1.064,1.867a.218.218,0,0,0,.069.291l1.717,1.118a.215.215,0,0,0,.326-.229l-.654-2.985a.213.213,0,0,0-.21-.17A.208.208,0,0,0,517.372,3534.142Zm1.4-1.532.515,2.724a.214.214,0,0,0,.4.06l.921-1.77a.217.217,0,0,0-.071-.281l-1.437-.956a.21.21,0,0,0-.117-.036A.216.216,0,0,0,518.776,3532.61Z" fill="#fff"/>
  </g>
</svg>
