<svg id="Layer_1" data-name="Layer 1" xmlns="http://www.w3.org/2000/svg" viewBox="0 0 595.28 841.89"><defs><style>.cls-2{fill:#fff}</style></defs><path fill="none" d="M0 0h595.28v841.89H0z"/><path class="cls-2" d="M321.53 665.72L298 654.19l-24.07 11.53c-2.55 42.13 24.07 49.15 24.07 49.15s26-7.02 23.53-49.15zm-23.6 46.17s-24-6.33-21.7-44.31l21.7-10.4 21.25 10.4c2.26 37.98-21.25 44.31-21.25 44.31z"/><path class="cls-2" d="M297.92 710.74h-.06a26 26 0 01-11.22-7.58c-5-5.52-10.67-16-9.56-34.73v-.14l20.83-10 .11.05 20.29 9.93v.14c1.12 18.71-4.46 29.21-9.34 34.72a25.39 25.39 0 01-11 7.59zm-20.37-42.15c-1.07 18.45 4.54 28.8 9.44 34.24a25.55 25.55 0 0010.93 7.42 25.23 25.23 0 0010.74-7.44c4.79-5.44 10.27-15.79 9.21-34.22l-19.95-9.76z"/><path class="cls-2" d="M297 661.18v23.54h-16.67c-.47-1.28-1.6-5.48-.92-14.86l17.59-8.68m.89-1.43l-19.27 9.54c-1 12.58 1.18 16.32 1.18 16.32h18.09v-25.86zm16.67 27.5a30 30 0 01-9.42 16.38 29.51 29.51 0 01-6.22 4.24v-20.59h15.64m1.07-.89h-17.6v22.84a30.44 30.44 0 0017.6-22.88zm-20.27 7.24h-4.17v-4.17l-1.04.64-1.04-.64v4.17h-4.17l.63 1.04-.63 1.04h4.17v4.17l1.04-.64 1.04.64v-4.17h4.17l-.64-1.04.64-1.04zm-35.76-20.09s3-7.18 0-8.91a3.7 3.7 0 012.31 1.1s-1.21-1.77-.46-3.27c.04 0 6.9 4.38-1.85 11.08zm27.97 40.17s-6.93-3.52-8.88-.71a3.63 3.63 0 011.27-2.21s-1.85 1.07-3.3.21c0 0 4.88-6.52 10.91 2.71zM272.9 693s-13-5.6-16.21-.26c0 0 .29-2.84 2.05-4.17 0 0-3.23 2.15-5.94.77 0 .01 8.09-12.34 20.1 3.66zm5.1 13.93s-5.19-5.56-7.93-3.63a3.67 3.67 0 011.91-1.61s-2.06.37-3.09-.9c.04 0 6.69-4.36 9.11 6.14z"/><path class="cls-2" d="M281 709.09s-3.79-6.59-1.14-8.64a3.62 3.62 0 00-2.1 1.35s.95-1.86 0-3.22c0 0-6.12 5.09 3.24 10.51zm-8.07-45.84s5.48-5.27 8.11-3.19a3.58 3.58 0 00-1.82-1.71s2 .47 3.14-.74c0 0-6.42-4.71-9.43 5.64z"/><path class="cls-2" d="M265.12 650.46c-.95 1.21 0 1.29 0 1.29a3.06 3.06 0 012.93-.83c-1 .28-.1 1.31-.1 1.31 6 2.88 4.71 7.92 4.71 7.92-1.17-4.12-3.49-4-3.49-4a6 6 0 01-1.06 5.34c-.31-1.08-1.84-.3-1.84-.3 2.41 3.54-4.2 10.8-4.2 10.8 3.7-1.4 13.94-6.18 13-16s-9.01-6.73-9.95-5.53zm6.52 11.72a3 3 0 01-.17.61 4.21 4.21 0 01-.32.75 5.59 5.59 0 01-.48.84 7 7 0 01-.62.87 16.46 16.46 0 01-1.54 1.73 21.89 21.89 0 01-1.72 1.54c-.58.46-1.13.87-1.62 1.2s-.91.58-1.2.76-.47.27-.47.27l1.43-1.33 1.47-1.35.75-.71.29-.39c.23-.34.52-.73.79-1.16s.55-.9.81-1.38c.12-.25.25-.48.35-.73s.23-.48.3-.72.19-.47.24-.69.14-.44.17-.64.08-.38.11-.55a4.08 4.08 0 00.05-.43c0-.24.05-.38.05-.38s0 .14.05.38a4.64 4.64 0 010 1c0 .21-.06.43-.09.68a5.66 5.66 0 01-.18.74 9.23 9.23 0 01-.63 1.54c-.2.35-.4.68-.62 1 .25-.26.5-.51.72-.78a13.74 13.74 0 001.23-1.53 6.48 6.48 0 00.42-.66 2.71 2.71 0 00.27-.54l.21-.49s.01.21-.05.55zm2.44-6.17c0 .13 0 .26.07.39s0 .25 0 .36v.64c0 .19 0 .35-.06.48s-.07.42-.07.42v-.9c0-.19-.07-.38-.1-.61a4.09 4.09 0 00-.16-.7 4.71 4.71 0 00-.25-.75l-.16-.39-.2-.39a6.47 6.47 0 00-.45-.75c-.15-.25-.36-.47-.53-.71s-.37-.44-.58-.63a12.6 12.6 0 00-1.13-1 11.34 11.34 0 00-1.23-.9 7 7 0 011.39.66 8.51 8.51 0 011.92 1.59 6.92 6.92 0 01.57.74 6.63 6.63 0 01.48.81l.19.42.15.43a4.08 4.08 0 01.15.78zm-3.87 15.61a6.34 6.34 0 011.55-1.75s-3.14-1.16-7.48 1.89c0 0-5 4.3-2.08 10s7.72 4.9 7.49 4.49c0 0-10-4.18-5.51-9.27 3-3.43 5.85.16 5.85.39 0 0 1.42-.87.07-3.36 0 0 1.29-.95 1.94-.31a2.93 2.93 0 00-1.83-2.08zm-2.62.57a2.07 2.07 0 00-.4 0c-.15 0-.33.08-.5.13s-.37.16-.55.26a6.31 6.31 0 00-.56.39 4.81 4.81 0 00-.53.49 5.59 5.59 0 00-.51.57 13.84 13.84 0 00-.88 1.22c-.26.42-.5.81-.69 1.15-.39.68-.64 1.15-.64 1.15a8.77 8.77 0 01.38-1.27 10.84 10.84 0 01.56-1.25 9.77 9.77 0 01.88-1.32 5.22 5.22 0 01.55-.6 3.67 3.67 0 01.62-.5 4.3 4.3 0 01.65-.37 6.61 6.61 0 01.64-.2 3.87 3.87 0 01.56 0 1.35 1.35 0 01.43.06 2.68 2.68 0 01.35.08zm-4.52 30.62c-.65-.64.29-1.93.29-1.93 2.5 1.33 3.36-.1 3.36-.1-.23 0-3.84-2.81-.44-5.84 5.05-4.5 9.32 5.42 9.32 5.42.4.23 1.18-4.52-4.56-7.44s-10 2.15-10 2.15c-3 4.37-1.83 7.5-1.83 7.5A6.45 6.45 0 01261 701a2.9 2.9 0 002.07 1.81zm-1.57-4.06s0-.13-.09-.36a1.73 1.73 0 01-.05-.42v-.57a5.12 5.12 0 01.2-.64 3.22 3.22 0 01.36-.65 3.67 3.67 0 01.5-.62 5.21 5.21 0 01.59-.56 8.91 8.91 0 011.31-.89 10.05 10.05 0 011.24-.57 8.11 8.11 0 011.28-.39s-.47.25-1.15.65c-.34.19-.73.43-1.14.69a14.14 14.14 0 00-1.22.9 4.52 4.52 0 00-.56.51 4.12 4.12 0 00-.49.54 5 5 0 00-.38.56c-.11.18-.17.37-.26.55s-.08.35-.12.5a1.18 1.18 0 000 .4c-.01.23-.02.37-.02.37zm74.18-25.21s-3-7.18 0-8.91a3.7 3.7 0 00-2.31 1.1s1.21-1.77.46-3.27c-.04 0-6.9 4.38 1.85 11.08zm-27.97 40.17s6.93-3.52 8.89-.71a3.67 3.67 0 00-1.28-2.21s1.86 1.07 3.3.21c0 0-4.87-6.52-10.91 2.71zM322.38 693s13-5.6 16.21-.26c0 0-.29-2.84-2-4.17 0 0 3.23 2.15 5.94.77-.05.01-8.14-12.34-20.15 3.66zm-5.14 13.93s5.19-5.56 7.93-3.63a3.67 3.67 0 00-1.91-1.61s2.06.37 3.1-.9c0 0-6.66-4.36-9.12 6.14z"/><path class="cls-2" d="M314.32 709.09s3.79-6.59 1.14-8.64a3.62 3.62 0 012.1 1.35s-.95-1.86 0-3.22c-.04 0 6.08 5.09-3.24 10.51zm8.03-45.84s-5.48-5.27-8.11-3.19a3.58 3.58 0 011.82-1.71s-2 .47-3.14-.74c0 0 6.42-4.71 9.43 5.64z"/><path class="cls-2" d="M320.18 655.94c-.92 9.82 9.32 14.6 13 16 0 0-6.6-7.26-4.2-10.8 0 0-1.53-.78-1.84.3a6 6 0 01-1.06-5.34s-2.32-.07-3.49 4c0 0-1.26-5 4.71-7.92 0 0 .88-1-.1-1.31a3.06 3.06 0 012.93.83s1-.08 0-1.29-9.04-4.28-9.95 5.53zm3.38 5.71l.21.49a2.71 2.71 0 00.27.54 6.48 6.48 0 00.42.66 15 15 0 001.23 1.53c.22.27.47.52.72.78a9.7 9.7 0 01-.61-1 8.51 8.51 0 01-.64-1.54 5.66 5.66 0 01-.18-.74c0-.25-.08-.47-.09-.68a4.64 4.64 0 010-1c0-.24.05-.38.05-.38v.38a4.08 4.08 0 00.05.43c0 .17.07.35.11.55s.12.41.17.64.16.45.24.69.2.47.3.72.24.48.35.73c.26.48.53 1 .81 1.38s.56.82.79 1.16l.29.39.75.71 1.47 1.35 1.43 1.33-.47-.27c-.29-.18-.72-.42-1.2-.76s-1-.74-1.61-1.2a22 22 0 01-1.73-1.54 16.46 16.46 0 01-1.54-1.73 7 7 0 01-.62-.87 5.59 5.59 0 01-.48-.84 3.52 3.52 0 01-.31-.75 2.54 2.54 0 01-.18-.61c.02-.36 0-.55 0-.55zm-2.16-6.46l.15-.43c.06-.14.13-.28.2-.42a5.5 5.5 0 01.47-.81 6.92 6.92 0 01.57-.74 8.51 8.51 0 011.92-1.59 7 7 0 011.39-.66 11.34 11.34 0 00-1.23.9 14.13 14.13 0 00-1.13 1c-.21.19-.38.42-.58.63s-.37.46-.53.71a6.47 6.47 0 00-.45.75l-.2.39c-.05.13-.1.26-.16.39a4.71 4.71 0 00-.25.75 5.32 5.32 0 00-.16.7c0 .23-.08.43-.09.61s0 .35 0 .48v.42s0-.15-.07-.42 0-.29-.06-.48 0-.4 0-.64v-.36c0-.12.05-.26.07-.39a4.08 4.08 0 01.14-.79zm1.85 18.52c.64-.64 1.93.31 1.93.31-1.35 2.49.07 3.36.07 3.36 0-.23 2.84-3.82 5.85-.39 4.45 5.09-5.51 9.27-5.51 9.27-.23.41 4.52 1.23 7.49-4.49s-2.08-10-2.08-10c-4.34-3-7.48-1.89-7.48-1.89a6.34 6.34 0 011.55 1.75 2.91 2.91 0 00-1.82 2.08zm4.08-1.53a2.68 2.68 0 01.35-.08 1.35 1.35 0 01.43-.06 3.87 3.87 0 01.56 0 6.61 6.61 0 01.64.2 3.86 3.86 0 01.65.37 3.67 3.67 0 01.62.5 5.22 5.22 0 01.55.6 9.77 9.77 0 01.88 1.32 10.84 10.84 0 01.56 1.25 8.77 8.77 0 01.38 1.27s-.25-.47-.64-1.15c-.19-.34-.43-.73-.69-1.15a13.84 13.84 0 00-.88-1.22 4.61 4.61 0 00-.51-.57 4.05 4.05 0 00-.53-.49 6.31 6.31 0 00-.56-.39c-.18-.1-.37-.17-.54-.26s-.36-.08-.51-.13a2.07 2.07 0 00-.4 0zm6.99 28.82a6.45 6.45 0 011.74 1.56s1.19-3.13-1.83-7.5c0 0-4.26-5.08-10-2.15s-5 7.67-4.56 7.44c0 0 4.27-9.92 9.32-5.42 3.4 3-.21 5.84-.44 5.84 0 0 .86 1.43 3.36.1 0 0 .94 1.29.3 1.93a2.89 2.89 0 002.11-1.8zm-.55-2.63a1.18 1.18 0 000-.4c0-.15-.07-.33-.12-.5s-.15-.37-.26-.55a4 4 0 00-.38-.56 4.12 4.12 0 00-.49-.54 4.52 4.52 0 00-.56-.51 14.14 14.14 0 00-1.22-.9c-.41-.26-.8-.5-1.14-.69-.67-.4-1.15-.65-1.15-.65a8.11 8.11 0 011.28.39 10.05 10.05 0 011.24.57 8.41 8.41 0 011.31.89 6.32 6.32 0 01.6.56 4.17 4.17 0 01.49.62 3.22 3.22 0 01.36.65 5.12 5.12 0 01.2.64v.57a1.73 1.73 0 01-.05.42c-.05.23-.09.36-.09.36s-.01-.13-.02-.36zm-20.19-21.09l-1.43-4.46h-.36v-.24a.93.93 0 00.72-.87 1.57 1.57 0 01-.72.43V672h-.28v.24c-.64 0-.93-1.05-1.75-1.05a15.37 15.37 0 00-2.14.51v-1.21a.82.82 0 00.68-.8.81.81 0 10-.86.8v1.2a12.85 12.85 0 00-2.09-.5c-.81 0-1.1 1.07-1.74 1.05h-.15V672h-.29v.16a1.55 1.55 0 01-.6-.4.94.94 0 00.6.83v.28h-.36l-1.46 4.47h-.83s.6 1.14 2.74 1.14 2.74-1.14 2.74-1.14h-.75l-1.43-4.47h-.36v-.21h.18c1 0 1.21-.67 1.79-.67s1.14.65 1.9.78h.14v2.5l-.49 1v2.93h-1.32v.52l-1.06 1.75h6l-1.3-1.78v-.49h-1.15v-2.91l-.49-1v-2.48a.15.15 0 00.09 0c.76-.13 1.37-.78 1.9-.78s.74.67 1.79.67h.07v.2h-.37l-1.45 4.46h-.84s.6 1.15 2.74 1.15 2.74-1.15 2.74-1.15zm-10.45 0h-1.52l1.37-4.17h.15zm.44-4.17l1.34 4.17h-1.49v-4.17zm7.94 4.17H310l1.37-4.17h.16zm.28 0v-4.17h.21l1.34 4.17zm-24.79-1.2h-1.29v1.77c0 .3.05.47.1.51a1.7 1.7 0 00.61.09v.34h-2.64v-.34a1.94 1.94 0 00.6-.07c.05 0 .08-.11.11-.23a10.39 10.39 0 000-1.08v-2.94a1.27 1.27 0 00-.08-.58 1.74 1.74 0 00-.65-.1v-.34h2.65v.34c-.37 0-.59 0-.65.12a6.71 6.71 0 00-.09 1.68v.33h1.31a2.71 2.71 0 01.9-1.83 3.36 3.36 0 012.32-.72 3.15 3.15 0 012.22.74 2.57 2.57 0 01.8 2 3 3 0 01-.85 2.23 3.12 3.12 0 01-2.29.84 3.24 3.24 0 01-2.31-.75 2.74 2.74 0 01-.77-2.01zm1.24-.25a3.36 3.36 0 00.48 1.88 1.64 1.64 0 001.45.73 1.6 1.6 0 001.4-.65 3.1 3.1 0 00.45-1.79 3.77 3.77 0 00-.22-1.36 1.83 1.83 0 00-.62-.88 1.89 1.89 0 00-1.1-.29 1.6 1.6 0 00-1.38.62 2.91 2.91 0 00-.43 1.74zm19.95 20.01a10.89 10.89 0 00-.21 1.85h-.4v-.16a9.48 9.48 0 00-.08-1.07 1.22 1.22 0 00-.51-.25 12.25 12.25 0 00-1.42-.05h-1.13a6.56 6.56 0 00-1.78.2l-.36 1.33h-.38c.05-.55.1-1.16.15-1.85a1 1 0 00.77-.63 5.52 5.52 0 00.41-1.84 20.45 20.45 0 00.13-2.08.64.64 0 00-.06-.33c0-.06-.25-.1-.66-.11v-.34h5.26v.34a1.43 1.43 0 00-.66.1 7.57 7.57 0 00-.1 1.93v2.26a2.37 2.37 0 000 .52.21.21 0 00.09.11h.13a5.06 5.06 0 00.81.07zm-2.22-.16a4.36 4.36 0 000-.51v-4.18h-2.08c0 .18-.05.52-.07 1-.09 1.88-.36 3.1-.83 3.64h2.47z"/></svg>