<svg xmlns="http://www.w3.org/2000/svg" width="68.978" height="68.978"><path data-name="Path 30" d="M0 34.489L34.49-.001l34.488 34.49-34.489 34.49z" fill="none"/><path data-name="Path 31" d="M32.333 19.4L48.86 35.925a8.129 8.129 0 01-11.496 11.496L19.4 29.459a5.081 5.081 0 117.185-7.185l15.089 15.089a2.033 2.033 0 11-2.874 2.874L25.148 26.585l-2.154 2.153L36.647 42.39a5.081 5.081 0 107.184-7.185L28.742 20.116a8.13 8.13 0 10-11.498 11.499l17.96 17.96a11.178 11.178 0 0015.808-15.807L34.488 17.244z" fill="#1ab524"/></svg>