<svg id="Слой_1" data-name="Слой 1" xmlns="http://www.w3.org/2000/svg" viewBox="0 0 58.73 43.12"><defs><style>.cls-1{fill:#fff}</style></defs><path class="cls-1" d="M45.62 12l-15.4-7.6L14.47 12C12.8 39.53 30.22 44.12 30.22 44.12S47.24 39.53 45.62 12zM30.17 42.17S14.47 38 16 13.17l14.2-6.81 13.91 6.81c1.48 24.86-13.91 29-13.91 29z" transform="translate(-.64 -1)"/><path class="cls-1" d="M30.17 41.42a17.08 17.08 0 01-7.35-5c-3.27-3.62-7-10.48-6.25-22.73v-.1l13.59-6.5h.07l13.28 6.5v.09c.74 12.32-2.92 19.15-6.11 22.76a16.55 16.55 0 01-7.2 5zM16.83 13.83c-.7 12.08 3 18.85 6.18 22.41a16.8 16.8 0 007.16 4.86 16.59 16.59 0 007-4.87c3.13-3.56 6.72-10.34 6-22.4l-13-6.39z" transform="translate(-.64 -1)"/><path class="cls-1" d="M29.56 9v15.39H18.65c-.3-.84-1-3.59-.6-9.73L29.56 9m.59-1l-12.62 6.29c-.65 8.23.78 10.68.78 10.68h11.84zm10.91 18a19.6 19.6 0 01-6.17 10.72 19.16 19.16 0 01-4.07 2.78V26.06h10.24m.7-.58H30.24v15a20 20 0 0011.52-15z" transform="translate(-.64 -1)"/><path class="cls-1" d="M27.86 29.22h-2.73v-2.73l-.68.42-.68-.42v2.73h-2.73l.41.68-.41.68h2.73v2.73l.68-.42.68.42v-2.73h2.73l-.42-.68.42-.68z"/><path class="cls-1" d="M5.09 17.07s2-4.7 0-5.83A2.42 2.42 0 016.6 12a2.4 2.4 0 01-.3-2.14s4.51 2.82-1.21 7.21zm18.3 26.29s-4.53-2.3-5.81-.46a2.38 2.38 0 01.83-1.45 2.41 2.41 0 01-2.16.14s3.2-4.27 7.14 1.77zm-9.6-13.55s-8.51-3.67-10.61-.17a4.42 4.42 0 011.34-2.73s-2.11 1.4-3.88.5c0 .01 5.29-8.08 13.15 2.4zm3.34 9.11s-3.4-3.64-5.19-2.37a2.41 2.41 0 011.25-1.06 2.31 2.31 0 01-2-.58s4.35-2.86 5.94 4.01z" transform="translate(-.64 -1)"/><path class="cls-1" d="M19.09 40.34s-2.48-4.32-.74-5.66a2.37 2.37 0 00-1.38.89 2.29 2.29 0 000-2.11s-3.97 3.33 2.12 6.88zm-5.28-30.01s3.59-3.44 5.31-2.08a2.32 2.32 0 00-1.19-1.12A2.33 2.33 0 0020 6.64s-4.22-3.08-6.19 3.69z" transform="translate(-.64 -1)"/><path class="cls-1" d="M8.7 2c-.62.8 0 .85 0 .85a2 2 0 011.92-.55c-.66.19-.07.86-.07.86 3.93 1.84 3.08 5.15 3.08 5.15-.76-2.7-2.28-2.62-2.28-2.62a3.93 3.93 0 01-.69 3.49C10.45 8.48 9.45 9 9.45 9 11 11.3 6.7 16.06 6.7 16.06c2.42-.92 9.13-4 8.51-10.48S9.31 1.18 8.7 2zM13 9.63a1.85 1.85 0 01-.12.4 2.65 2.65 0 01-.2.49 3.3 3.3 0 01-.32.55 4.49 4.49 0 01-.4.57 12.1 12.1 0 01-1 1.14c-.36.35-.74.69-1.13 1s-.74.57-1.06.79-.59.38-.78.5l-.31.17.93-.87 1-.88L10 13l.19-.25c.15-.22.34-.48.51-.76s.36-.59.53-.9.17-.32.23-.48a4.73 4.73 0 00.2-.47c.05-.16.12-.31.16-.45s.09-.29.11-.42S12 9 12 8.93a1.41 1.41 0 000-.28.67.67 0 010-.25 1.51 1.51 0 000 .25 3.53 3.53 0 010 .65 4.32 4.32 0 01-.06.45 4.21 4.21 0 01-.12.48 5.93 5.93 0 01-.41 1 7.14 7.14 0 01-.41.65 5.56 5.56 0 00.47-.51 7.7 7.7 0 00.81-1 3.87 3.87 0 00.27-.43 1.29 1.29 0 00.18-.35l.27-.32a1.59 1.59 0 010 .36zm1.59-4a.45.45 0 000 .25v.66a.75.75 0 010 .31 1 1 0 00-.05.27v-.61a3.24 3.24 0 00-.06-.4 2.37 2.37 0 00-.11-.46 2.81 2.81 0 00-.16-.49l-.1-.26-.11-.25a3 3 0 00-.29-.49c-.1-.17-.24-.31-.35-.47a2.13 2.13 0 00-.38-.41 9.4 9.4 0 00-.74-.66 6.52 6.52 0 00-.8-.58 4.45 4.45 0 01.91.43 5.46 5.46 0 011.26 1c.13.15.25.31.37.48a4.07 4.07 0 01.31.53l.13.28.1.28a3 3 0 01.09.51zM12 15.81a4.08 4.08 0 011-1.14s-2-.76-4.89 1.23c0 0-3.27 2.82-1.36 6.55s5.05 3.21 4.9 2.94c0 0-6.55-2.74-3.61-6.07a2.28 2.28 0 013.83.26s.93-.57.05-2.2c0 0 .84-.62 1.27-.21A2 2 0 0012 15.81zm-1.71.38a1.22 1.22 0 00-.27 0 1.49 1.49 0 00-.32.08 2 2 0 00-.36.17 3.09 3.09 0 00-.34.26 2.6 2.6 0 00-.35.32 2.91 2.91 0 00-.33.37 9 9 0 00-.58.8c-.17.27-.32.53-.45.75l-.42.75a6.09 6.09 0 01.25-.83 8.58 8.58 0 01.37-.86 7.12 7.12 0 01.57-.86 3.33 3.33 0 01.36-.39 2.12 2.12 0 01.41-.33 3 3 0 01.43-.24 2.8 2.8 0 01.41-.13 2.28 2.28 0 01.37 0 .86.86 0 01.28 0l.23.05zM7.36 36.23c-.43-.42.19-1.27.19-1.27 1.63.87 2.2-.06 2.2-.06a2.27 2.27 0 01-.29-3.82c3.3-2.95 6.1 3.54 6.1 3.54.26.15.77-2.95-3-4.87S6 31.16 6 31.16c-2 2.86-1.2 4.91-1.2 4.91A4.28 4.28 0 016 35a1.9 1.9 0 001.36 1.23zm-1-2.66a.72.72 0 00-.06-.24 1.24 1.24 0 010-.27v-.37a2.58 2.58 0 01.13-.42 2.22 2.22 0 01.23-.43 3.19 3.19 0 01.33-.4 2.72 2.72 0 01.39-.37 5.63 5.63 0 01.86-.58 6 6 0 01.76-.38 6.09 6.09 0 01.83-.25l-.75.42-.74.46a6.6 6.6 0 00-.8.59 2.91 2.91 0 00-.37.33 3.49 3.49 0 00-.32.35c-.09.12-.17.24-.25.37s-.11.24-.17.36a1.57 1.57 0 00-.08.33 1.13 1.13 0 000 .26c-.01.15-.02.24-.02.24zm48.52-16.5s-2-4.7 0-5.83a2.42 2.42 0 00-1.51.72 2.4 2.4 0 00.3-2.14s-4.52 2.86 1.21 7.25zM36.57 43.36s4.54-2.3 5.82-.46a2.38 2.38 0 00-.83-1.45 2.41 2.41 0 002.16.14s-3.19-4.27-7.15 1.77zm9.61-13.55s8.51-3.67 10.61-.17a4.49 4.49 0 00-1.31-2.73s2.11 1.4 3.88.5c-.03.01-5.36-8.08-13.18 2.4zm-3.37 9.11s3.4-3.64 5.19-2.37a2.41 2.41 0 00-1.25-1.06 2.33 2.33 0 002-.58s-4.33-2.86-5.94 4.01z" transform="translate(-.64 -1)"/><path class="cls-1" d="M40.9 40.34s2.48-4.32.75-5.66a2.35 2.35 0 011.37.89 2.29 2.29 0 010-2.11s3.98 3.33-2.12 6.88zm5.26-30.01s-3.59-3.44-5.31-2.08A2.32 2.32 0 0142 7.13a2.35 2.35 0 01-2-.49s4.19-3.08 6.16 3.69z" transform="translate(-.64 -1)"/><path class="cls-1" d="M44.74 5.55c-.61 6.45 6.1 9.56 8.51 10.45 0 0-4.32-4.75-2.75-7.07 0 0-1-.51-1.21.2a3.93 3.93 0 01-.69-3.5s-1.52 0-2.29 2.62c0 0-.82-3.27 3.09-5.18 0 0 .57-.66-.07-.86a2 2 0 011.92.54s.65 0 0-.84-5.92-2.78-6.51 3.64zM47 9.29l.14.32a1.62 1.62 0 00.17.35 4.55 4.55 0 00.28.43 8.55 8.55 0 00.8 1c.15.18.31.35.47.52a7.23 7.23 0 01-.4-.66 5.22 5.22 0 01-.41-1 4.21 4.21 0 01-.12-.48c0-.16-.05-.31-.06-.45a3.53 3.53 0 010-.65.87.87 0 010-.25v.53a1.82 1.82 0 00.13.35c0 .13.08.27.11.42a3.05 3.05 0 00.16.45c.05.16.13.31.19.47s.16.32.23.48a9.31 9.31 0 00.53.9c.18.25.37.54.52.76l.19.26.49.46 1 .89.94.87-.36-.18c-.19-.12-.47-.27-.79-.5s-.65-.48-1-.78-.77-.66-1.13-1a10.86 10.86 0 01-1-1.13 4.57 4.57 0 01-.41-.57 4.29 4.29 0 01-.31-.55 2.3 2.3 0 01-.2-.49 1.52 1.52 0 01-.12-.4 3.24 3.24 0 00-.04-.37zm-1.47-4.23l.1-.28.13-.28a4.07 4.07 0 01.31-.5c.12-.17.24-.33.37-.48a5.46 5.46 0 011.26-1 4.45 4.45 0 01.91-.52 6.52 6.52 0 00-.8.58 9.4 9.4 0 00-.74.66 5 5 0 00-.38.41 2.73 2.73 0 00-.35.47 3 3 0 00-.29.49l-.14.25a2.77 2.77 0 01-.1.26 2.81 2.81 0 00-.16.49 3.43 3.43 0 00-.11.46 3.8 3.8 0 01-.06.4v.59a1.44 1.44 0 000-.28v-.31a1.48 1.48 0 010-.42v-.22a2.17 2.17 0 010-.25 4.34 4.34 0 01.05-.52zm1.22 12.12c.41-.42 1.26.2 1.26.2-.88 1.63 0 2.2 0 2.2a2.28 2.28 0 013.83-.25c2.92 3.33-3.6 6.07-3.6 6.07-.15.26 3 .8 4.9-2.94s-1.36-6.55-1.36-6.55c-2.84-2-4.9-1.24-4.9-1.24a4.31 4.31 0 011 1.15 1.9 1.9 0 00-1.13 1.36zm2.67-1l.23-.05a.86.86 0 01.28 0 2.16 2.16 0 01.36 0 2.92 2.92 0 01.42.13 3.62 3.62 0 01.43.24 2.06 2.06 0 01.4.33 3.33 3.33 0 01.36.39 6.17 6.17 0 01.58.86 8.58 8.58 0 01.37.82 6 6 0 01.24.83l-.41-.75-.46-.75a8.93 8.93 0 00-.57-.8 2.37 2.37 0 00-.34-.37 2.05 2.05 0 00-.31-.36 3.09 3.09 0 00-.37-.26l-.35-.17a1.51 1.51 0 00-.34-.08 1.13 1.13 0 00-.26 0zM54 35a4.28 4.28 0 011.14 1s.78-2-1.2-4.91c0 0-2.79-3.32-6.54-1.4s-3.28 5-3 4.87c0 0 2.8-6.5 6.1-3.55a2.27 2.27 0 01-.29 3.82s.57.94 2.2.07c0 0 .62.84.2 1.26A1.88 1.88 0 0054 35zm-.36-1.72a.57.57 0 000-.26 1.06 1.06 0 00-.08-.33 1.66 1.66 0 00-.17-.36 1.78 1.78 0 00-.25-.36 2.17 2.17 0 00-.32-.36 2.82 2.82 0 00-.36-.33 9.878 9.878 0 00-1.55-1.04l-.75-.43a4.81 4.81 0 01.84.26 5.92 5.92 0 01.81.37 6.17 6.17 0 01.86.58c.13.12.27.24.39.37a2.15 2.15 0 01.32.41 2.86 2.86 0 01.24.42c0 .14.09.28.13.42v.37a.86.86 0 010 .28 1.64 1.64 0 01-.06.23v-.23zM40.42 19.52l-.94-2.92h-.23v-.16a.61.61 0 00.47-.57 1 1 0 01-.47.28v-.09h-.19v.16c-.42 0-.61-.69-1.14-.69a9.23 9.23 0 00-1.4.34v-.8a.53.53 0 00.44-.52.53.53 0 10-1.06 0 .53.53 0 00.5.53v.79a8.28 8.28 0 00-1.4-.34c-.53 0-.72.7-1.14.69h-.1v-.16h-.16v.11a1.05 1.05 0 01-.39-.27.62.62 0 00.39.55v.18h-.23l-1 2.93h-.54s.39.74 1.79.74 1.8-.74 1.8-.74H35l-1-2.93h-.24v-.14h.12c.66 0 .79-.43 1.17-.43s.75.42 1.25.51h.09v1.63l-.32.66v1.91h-.87v.34l-.69 1.15h3.93l-.85-1.17v-.32h-.76v-1.9l-.32-.65v-1.63a.06.06 0 00.06 0c.5-.08.9-.51 1.24-.51s.49.44 1.18.44v.13h-.24l-1 2.92h-.55s.39.75 1.79.75 1.8-.75 1.8-.75zm-6.84 0h-1l.9-2.73h.1zm.28-2.73l.88 2.73h-1v-2.73zm5.2 2.73h-1l.9-2.73h.1zm.19 0v-2.73h.13l.88 2.73zM23 18.73h-.84v1.16c0 .2 0 .31.06.33a.91.91 0 00.4.06v.23h-1.71v-.23a1.26 1.26 0 00.39 0s.06-.07.08-.15v-2.67a.82.82 0 00-.06-.38 1.2 1.2 0 00-.42-.08v-.22h1.73V17c-.24 0-.38 0-.42.08a4 4 0 00-.06 1.1v.21H23a1.71 1.71 0 01.59-1.19 2.18 2.18 0 011.51-.47 2.05 2.05 0 011.46.48 1.7 1.7 0 01.52 1.31 2 2 0 01-.55 1.48 2 2 0 01-1.49.55 2.15 2.15 0 01-1.52-.49 1.79 1.79 0 01-.52-1.33zm.81-.16a2.14 2.14 0 00.32 1.23 1.08 1.08 0 00.94.48 1.06 1.06 0 00.92-.43 2 2 0 00.3-1.17 2.68 2.68 0 00-.15-.89 1.17 1.17 0 00-.4-.58A1.32 1.32 0 0025 17a1.08 1.08 0 00-.91.41 1.9 1.9 0 00-.28 1.14zm13.08 13.1a6.9 6.9 0 00-.14 1.21h-.26v-.11a5.49 5.49 0 00-.05-.7.82.82 0 00-.34-.16h-1.67a4.55 4.55 0 00-1.16.14l-.24.87h-.25c0-.36.07-.76.1-1.21a.68.68 0 00.51-.42 3.8 3.8 0 00.27-1.2 12.4 12.4 0 00.08-1.36.41.41 0 000-.22s-.16-.06-.43-.07v-.22h3.44v.22a1 1 0 00-.43.06 4.93 4.93 0 00-.07 1.27v1.48a1.93 1.93 0 000 .34l.06.07h.09a4.53 4.53 0 00.49.01zm-1.45-.11v-3.07h-1.37v.66a4.47 4.47 0 01-.54 2.38h1.57z" transform="translate(-.64 -1)"/></svg>