<svg xmlns="http://www.w3.org/2000/svg" width="60.9" height="44.65"><path data-name="Path 1" d="M46.604 11.361L30.626 3.512l-16.259 7.849C12.618 39.884 30.626 44.65 30.626 44.65s17.73-4.766 15.978-33.289zM30.626 42.617s-16.259-4.275-14.717-29.994l14.717-7.079 14.367 7.078c1.611 25.72-14.367 29.995-14.367 29.995z"/><g data-name="Group 2"><g data-name="Group 1"><path data-name="Path 2" d="M30.626 41.846a17.737 17.737 0 01-7.644-5.116c-3.364-3.714-7.218-10.863-6.447-23.547v-.068l14.086-6.8h.07l13.741 6.728v.07c.771 12.685-3.013 19.763-6.307 23.547a17.142 17.142 0 01-7.5 5.186zM16.82 13.253c-.7 12.474 3.084 19.553 6.377 23.2a17.324 17.324 0 007.429 5.046 17.294 17.294 0 007.288-5.046c3.224-3.714 6.938-10.722 6.237-23.2L30.626 6.665z"/></g></g><g data-name="Group 3"><path data-name="Path 3" d="M29.995 8.277v15.979H18.712c-.35-.841-1.051-3.714-.631-10.092l11.914-5.887m.561-.981L17.52 13.743c-.7 8.55.771 11.073.771 11.073h12.264V7.296z"/></g><g data-name="Group 4"><path data-name="Path 4" d="M41.909 25.938a20.115 20.115 0 01-6.377 11.069 22.414 22.414 0 01-4.2 2.873V25.938h10.577m.7-.631H30.696v15.488A20.505 20.505 0 0042.61 25.307z"/></g><g data-name="Group 5"><path data-name="Path 5" d="M28.873 30.21h-2.808v-2.8l-.7.42-.7-.42v2.8h-2.8l.42.7-.42.771h2.8v2.8l.7-.42.7.42v-2.8h2.8l-.42-.771z"/></g><g data-name="Group 25"><g data-name="Group 7"><g data-name="Group 6"><path data-name="Path 6" d="M4.695 16.618s2.032-4.836 0-6.027a2.265 2.265 0 011.542.771 2.378 2.378 0 01-.28-2.243s4.625 2.942-1.262 7.499z"/></g></g><g data-name="Group 9"><g data-name="Group 8"><path data-name="Path 7" d="M23.618 43.879s-4.7-2.383-6.027-.491a2.248 2.248 0 01.841-1.472 2.583 2.583 0 01-2.243.14c.07-.069 3.364-4.484 7.429 1.823z"/></g></g><g data-name="Group 11"><g data-name="Group 10"><path data-name="Path 8" d="M13.666 29.793s-8.83-3.784-11-.21a4.609 4.609 0 011.4-2.8S1.892 28.251 0 27.267c.07.073 5.536-8.337 13.666 2.526z"/></g></g><g data-name="Group 16"><g data-name="Group 13"><g data-name="Group 12"><path data-name="Path 9" d="M17.17 39.254s-3.5-3.784-5.4-2.453a2.485 2.485 0 011.263-1.121 2.3 2.3 0 01-2.1-.631c.07.07 4.555-2.944 6.237 4.205z"/></g></g><g data-name="Group 15"><g data-name="Group 14"><path data-name="Path 10" d="M19.128 40.725s-2.593-4.485-.771-5.887a2.4 2.4 0 00-1.4.911 2.39 2.39 0 000-2.173s-4.129 3.435 2.171 7.149z"/></g></g></g><g data-name="Group 18"><g data-name="Group 17"><path data-name="Path 11" d="M13.666 9.679s3.714-3.574 5.466-2.173a2.832 2.832 0 00-1.266-1.191 2.285 2.285 0 002.1-.491c.147.003-4.2-3.153-6.3 3.855z"/></g></g><g data-name="Group 20"><g data-name="Group 19"><path data-name="Path 12" d="M8.407.989c-.631.841 0 .841 0 .841a2.219 2.219 0 011.962-.561c-.631.21-.07.911-.07.911 4.065 1.962 3.224 5.4 3.224 5.4-.771-2.8-2.383-2.733-2.383-2.733a4.075 4.075 0 01-.7 3.644c-.21-.7-1.261-.21-1.261-.21 1.612 2.383-2.873 7.288-2.873 7.288 2.523-.981 9.461-4.2 8.83-10.863C14.577-1.955 9.04.148 8.407.989zm4.418 7.922a1 1 0 01-.14.42c-.07.14-.14.35-.21.491a2.459 2.459 0 01-.35.561 3.887 3.887 0 01-.42.561c-.28.42-.7.771-1.051 1.191-.35.35-.771.7-1.191 1.051-.42.28-.771.561-1.121.841a6.137 6.137 0 01-.841.491 3.641 3.641 0 01-.35.21s.42-.35.981-.911c.28-.28.631-.561.981-.911l.491-.491a.967.967 0 00.21-.28c.14-.21.35-.491.561-.771s.35-.631.561-.911c.07-.14.14-.35.21-.491s.14-.35.21-.491a1.3 1.3 0 00.14-.491c.07-.14.07-.28.14-.42a3.035 3.035 0 01.07-.35v-.564a1.105 1.105 0 00.07.28 2.3 2.3 0 010 .7c0 .14-.07.28-.07.491a1.3 1.3 0 01-.14.491 6.577 6.577 0 01-.42 1.051c-.14.21-.28.491-.42.7.14-.21.35-.35.491-.561a5.527 5.527 0 00.841-1.051 1.466 1.466 0 00.28-.42 1.532 1.532 0 01.21-.35 2.947 2.947 0 01.14-.35.217.217 0 01.137.284zm1.682-4.138a.421.421 0 00.07.28v.7a.632.632 0 01-.07.35.41.41 0 01-.07.28v-.629c0-.14-.07-.28-.07-.42a1.783 1.783 0 00-.14-.491c-.07-.14-.07-.35-.14-.491 0-.07-.07-.14-.14-.28s-.07-.21-.14-.28a3.047 3.047 0 00-.28-.491 2.13 2.13 0 00-.35-.491l-.42-.42c-.28-.28-.561-.491-.771-.7a6.919 6.919 0 00-.841-.631 5.656 5.656 0 01.911.42 3.294 3.294 0 01.841.631l.42.42c.14.14.28.35.42.491a2.841 2.841 0 01.35.631c.07.07.07.21.14.28 0 .07.07.21.07.28.139.141.139.351.21.561z"/></g></g><g data-name="Group 22"><g data-name="Group 21"><path data-name="Path 13" d="M11.844 15.356a4.359 4.359 0 011.051-1.191s-2.1-.771-5.046 1.261c0 0-3.434 2.943-1.4 6.8s5.256 3.294 5.046 3.013c0 0-6.728-2.8-3.714-6.307 2.032-2.313 3.925.14 3.995.28 0 0 .981-.561.07-2.243 0 0 .841-.631 1.332-.21-.073-.001-.356-1.123-1.334-1.403zm-1.752.35h-.28a3.035 3.035 0 01-.35.07c-.14.07-.28.07-.35.14a.7.7 0 00-.35.28.845.845 0 00-.35.35c-.14.14-.21.28-.35.35l-.631.841a7.387 7.387 0 01-.491.771c-.28.491-.42.771-.42.771a4.726 4.726 0 01.28-.841 4.287 4.287 0 01.35-.841 6.4 6.4 0 01.561-.911c.14-.14.21-.28.35-.42s.28-.21.42-.35.28-.14.42-.28c.14-.07.28-.07.42-.14h.35c.21.14.35.14.42.21z"/></g></g><g data-name="Group 24"><g data-name="Group 23"><path data-name="Path 14" d="M7.007 36.45c-.42-.42.21-1.332.21-1.332 1.682.911 2.243-.07 2.243-.07a2.391 2.391 0 01-.28-3.995c3.434-3.084 6.307 3.644 6.307 3.644.28.14.771-3.084-3.084-5.046s-6.8 1.472-6.8 1.472c-2.032 2.943-1.261 5.116-1.261 5.116a4.359 4.359 0 011.195-1.05 2.038 2.038 0 001.47 1.261zm-1.049-2.733a.542.542 0 00-.07-.21c0-.07-.07-.14-.07-.28v-.35c.07-.14.07-.28.14-.42l.21-.42a1.858 1.858 0 01.35-.42 1.858 1.858 0 01.42-.35 10.253 10.253 0 01.911-.631l.841-.42a4.725 4.725 0 01.841-.28 4.7 4.7 0 00-.771.42c-.21.14-.491.28-.771.491a6.575 6.575 0 00-.841.631c-.14.14-.28.21-.35.35l-.35.35c-.14.14-.14.28-.28.35a1.184 1.184 0 00-.14.35.632.632 0 00-.07.35c-.07.07 0 .21 0 .28v.209z"/></g></g></g><g data-name="Group 36"><g data-name="Group 26"><path data-name="Path 15" d="M56.205 16.618s-2.032-4.836 0-6.027a2.265 2.265 0 00-1.542.771 2.378 2.378 0 00.28-2.243s-4.625 2.942 1.262 7.499z"/></g><g data-name="Group 27"><path data-name="Path 16" d="M37.283 43.879s4.7-2.383 6.027-.491a2.248 2.248 0 00-.841-1.472 2.583 2.583 0 002.243.14c-.07-.069-3.364-4.484-7.429 1.823z"/></g><g data-name="Group 28"><path data-name="Path 17" d="M47.235 29.793s8.83-3.784 11-.21a4.609 4.609 0 00-1.4-2.8s2.173 1.472 4.065.491c-.065.066-5.536-8.344-13.665 2.519z"/></g><g data-name="Group 31"><g data-name="Group 29"><path data-name="Path 18" d="M43.73 39.254s3.5-3.784 5.4-2.453a2.485 2.485 0 00-1.261-1.121 2.3 2.3 0 002.1-.631c-.072.07-4.557-2.944-6.239 4.205z"/></g><g data-name="Group 30"><path data-name="Path 19" d="M41.768 40.725s2.593-4.485.771-5.887a2.4 2.4 0 011.4.911 2.39 2.39 0 010-2.173s4.136 3.435-2.171 7.149z"/></g></g><g data-name="Group 32"><path data-name="Path 20" d="M47.164 9.679s-3.714-3.574-5.466-2.173a2.832 2.832 0 011.259-1.191 2.285 2.285 0 01-2.1-.491c-.07.003 4.275-3.153 6.307 3.855z"/></g><g data-name="Group 33"><path data-name="Path 21" d="M45.693 4.703c-.631 6.658 6.307 9.881 8.83 10.863 0 0-4.485-4.906-2.873-7.288 0 0-1.051-.561-1.261.21a3.985 3.985 0 01-.7-3.644s-1.542-.07-2.383 2.733c0 0-.841-3.434 3.224-5.4 0 0 .631-.7-.07-.911a2 2 0 011.962.561s.631-.07 0-.841c-.562-.838-6.098-2.941-6.729 3.717zm2.317 3.855a2.947 2.947 0 01.14.35c0 .14.07.21.21.35a1.466 1.466 0 00.28.42 5.527 5.527 0 00.841 1.051c.14.21.35.35.491.561a6.163 6.163 0 01-.42-.7 6.577 6.577 0 01-.42-1.051c-.07-.14-.07-.35-.14-.491 0-.14-.07-.35-.07-.491v-.42c0 .14.07.21.07.35a1 1 0 00.14.42c0 .14.14.28.14.491.07.14.14.35.21.491s.14.35.21.491a3.973 3.973 0 00.561.911 7.341 7.341 0 00.561.771c.07.07.14.21.21.28l.491.491c.35.35.7.631.981.911.561.561.981.911.981.911a3.641 3.641 0 01-.35-.21c-.21-.14-.491-.28-.841-.491a9.305 9.305 0 01-1.121-.841c-.42-.28-.771-.7-1.191-1.051a8.526 8.526 0 01-1.051-1.191 3.887 3.887 0 00-.42-.561 3.912 3.912 0 00-.35-.561c-.07-.14-.14-.35-.21-.491s-.07-.28-.14-.42c.207-.14.207-.28.207-.28zm-1.476-4.347c0-.07.07-.21.07-.28.07-.07.07-.21.14-.28a2.459 2.459 0 01.35-.561c.14-.21.28-.35.42-.561l.42-.42a5.217 5.217 0 01.841-.631 3.089 3.089 0 01.911-.42s-.28.21-.771.561c-.21.21-.491.42-.771.7l-.42.42a1.257 1.257 0 00-.35.491 1.757 1.757 0 00-.28.491c-.07.07-.07.14-.14.28s-.07.21-.14.28a1.3 1.3 0 00-.14.491c-.07.14-.07.35-.14.491 0 .14-.07.28-.07.42v.628a1.105 1.105 0 00-.07-.28.762.762 0 00-.07-.35v-.7a.53.53 0 01.07-.28c.07-.138.07-.348.14-.49z"/></g><g data-name="Group 34"><path data-name="Path 22" d="M47.795 16.758c.42-.42 1.332.21 1.332.21-.911 1.682.07 2.243.07 2.243a2.391 2.391 0 013.998-.285c3.013 3.434-3.714 6.307-3.714 6.307-.14.28 3.084.841 5.046-3.013 2.032-3.854-1.4-6.8-1.4-6.8-2.943-2.032-5.046-1.261-5.046-1.261a4.359 4.359 0 011.051 1.191 1.874 1.874 0 00-1.337 1.408zm2.733-1.051a.542.542 0 00.21-.07c.07 0 .14-.07.28 0h.35c.14.07.28.07.42.14a1.466 1.466 0 01.42.28 3.023 3.023 0 01.771.771 3.974 3.974 0 01.561.911 4.287 4.287 0 01.35.841 4.726 4.726 0 01.28.841 4.7 4.7 0 00-.42-.771c-.14-.21-.28-.491-.491-.771a6.575 6.575 0 00-.631-.841c-.14-.14-.21-.28-.35-.35l-.35-.35c-.14-.14-.28-.14-.35-.28a1.184 1.184 0 00-.35-.14.632.632 0 00-.35-.07c-.07-.07-.21 0-.28 0 .07-.141-.07-.141-.07-.141z"/></g><g data-name="Group 35"><path data-name="Path 23" d="M55.294 35.259a4.359 4.359 0 011.191 1.051s.771-2.1-1.261-5.116c0 0-2.873-3.434-6.8-1.472s-3.364 5.186-3.084 5.046c0 0 2.873-6.728 6.307-3.644 2.313 2.032-.14 3.925-.28 3.995 0 0 .561.981 2.243.07 0 0 .631.841.21 1.332.073-.071 1.194-.281 1.474-1.262zm-.35-1.822v-.28a3.035 3.035 0 01-.07-.35c-.07-.14-.07-.28-.14-.35a.7.7 0 00-.28-.35.844.844 0 00-.35-.35c-.14-.14-.28-.21-.35-.35l-.841-.631c-.28-.21-.561-.35-.771-.491-.491-.28-.771-.42-.771-.42a4.726 4.726 0 01.841.28 2.368 2.368 0 01.841.42 3.563 3.563 0 01.911.631c.14.14.28.21.42.35s.21.28.35.42.14.28.21.42.07.28.14.42v.35c-.07.14-.07.21-.14.28z"/></g></g><g data-name="Group 38"><g data-name="Group 37"><path data-name="Path 24" d="M41.277 19.14l-.981-3.017h-.21v-.14a.683.683 0 00.42-.631 1.194 1.194 0 01-.491.28v-.14h-.21v.14c-.42 0-.631-.7-1.191-.7a9.048 9.048 0 00-1.472.35v-.841a.6.6 0 00.491-.561.561.561 0 10-1.121 0 .6.6 0 00.491.561v.911a6.816 6.816 0 00-1.4-.35c-.561 0-.771.7-1.191.7h-.07v-.14h-.14v.14a.758.758 0 01-.42-.28.613.613 0 00.42.561v.21h-.28l-.981 3.013h-.564a1.98 1.98 0 001.822.771c1.472 0 1.822-.771 1.822-.771h-.42l-.981-3.013h-.28v-.14h.14c.7 0 .841-.42 1.191-.42s.771.42 1.261.561h.07v1.682l-.35.631v1.962h-.911v.35l-.7 1.191h4.065l-.912-1.187v-.35h-.771v-1.964l-.35-.7v-1.753h.07c.491-.07.911-.561 1.261-.561.42 0 .491.42 1.191.42h.07v.14h-.21l-.978 3.015h-.561a1.98 1.98 0 001.822.771c1.472 0 1.822-.771 1.822-.771h-.283zm-7.078 0h-1.051l.911-2.8h.14zm.28-2.8l.911 2.8h-.981v-2.8zm5.326 2.8h-1.051l.911-2.8h.14zm.21 0v-2.8h.14l.911 2.8zm0 0"/></g></g><g data-name="Group 40"><g data-name="Group 39"><path data-name="Path 25" d="M23.267 18.367h-.841v1.191c0 .21 0 .35.07.35a1.528 1.528 0 00.42.07v.21h-1.822v-.21c.21 0 .35 0 .42-.07a.245.245 0 00.07-.14v-2.66c0-.21 0-.35-.07-.42a1.528 1.528 0 00-.42-.07v-.21h1.752v.21a1.017 1.017 0 00-.42.07 3.208 3.208 0 00-.07 1.121v.21h.911a2.174 2.174 0 01.631-1.261 2.151 2.151 0 011.542-.491 1.974 1.974 0 011.472.491 1.843 1.843 0 01.561 1.4 1.94 1.94 0 01-2.1 2.1 2.045 2.045 0 01-1.542-.491 1.957 1.957 0 01-.564-1.4zm.841-.21a2.42 2.42 0 00.35 1.261 1.06 1.06 0 00.981.491.964.964 0 00.911-.42 2.005 2.005 0 00.28-1.191 3.551 3.551 0 00-.14-.911.727.727 0 00-.42-.561 1.259 1.259 0 00-.771-.21 1.041 1.041 0 00-.911.42 1.657 1.657 0 00-.281 1.123z"/></g></g><g data-name="Group 42"><g data-name="Group 41"><path data-name="Path 26" d="M37.564 31.755a6.286 6.286 0 00-.14 1.261h-.28v-.135a2.629 2.629 0 00-.07-.7.535.535 0 00-.35-.14 9.671 9.671 0 00-.981-.07h-.771a5.032 5.032 0 00-1.191.14l-.21.911h-.282a6.814 6.814 0 00.07-1.261.6.6 0 00.491-.42 4.236 4.236 0 00.28-1.261 10.9 10.9 0 00.07-1.4c0-.14 0-.21-.07-.21 0-.07-.21-.07-.42-.07v-.219h3.5v.21c-.28 0-.42 0-.42.07a4.4 4.4 0 00-.07 1.332v1.888c0 .07 0 .07.07.07h.771zm-1.472-.14v-3.154h-1.471a3.218 3.218 0 01-.07.7 4.263 4.263 0 01-.561 2.453h1.752c.07.067.21.001.347.001z"/></g></g></svg>