<svg xmlns="http://www.w3.org/2000/svg" width="175pt" height="214pt" viewBox="0 0 175 214"><defs><clipPath id="a"><path d="M0 0h175v214H0z"/></clipPath></defs><g clip-path="url(#a)"><path d="M0 0h175v.657C116.667.654 58.33.47 0 .75V0zm0 0" fill="none" stroke-width=".1" stroke="#fff" stroke-miterlimit="10"/><path d="M0 0h175v.657C116.667.654 58.33.47 0 .75V0zm0 0" fill="#fff"/><path d="M0 .75C58.33.47 116.667.654 175 .657v133.59c-1.725 12.593-5.045 25.122-11.633 36.1-10.865 18.97-29.115 33.527-50.026 39.906-5.86 1.9-11.976 2.736-18.03 3.747H79.717c-12.074-1.738-24.073-4.896-34.695-11.057-19.974-11.175-35.313-30.446-41.389-52.546C1.758 143.85 1.07 137.055 0 130.35V.75zm0 0" fill="none" stroke-width=".1" stroke="#0066b3" stroke-miterlimit="10"/><path d="M0 .75C58.33.47 116.667.654 175 .657v133.59c-1.725 12.593-5.045 25.122-11.633 36.1-10.865 18.97-29.115 33.527-50.026 39.906-5.86 1.9-11.976 2.736-18.03 3.747H79.717c-12.074-1.738-24.073-4.896-34.695-11.057-19.974-11.175-35.313-30.446-41.389-52.546C1.758 143.85 1.07 137.055 0 130.35V.75zm0 0" fill="#0066b3"/><path d="M39.15 16.812c6.05 7.787 11.326 16.146 17.156 24.1 2.563-3.204 4.865-6.605 7.396-9.832 2.166 3.517 4.25 7.083 6.432 10.59 6.11-7.614 11.513-15.77 17.626-23.381 5.833 7.748 11.426 15.676 17.378 23.333 2.331-3.443 4.347-7.084 6.604-10.574 2.393 3.298 4.787 6.597 7.265 9.834 5.673-7.663 10.945-15.617 16.486-23.37l1.115-.22c9.376 12.944 19.077 25.68 28.255 38.76-1.66 3.573-5.321 5.985-7.877 8.996-7-9.235-13.56-18.798-20.66-27.956-5.791 7.98-11.122 16.293-17.12 24.12-2.417-3.413-4.733-6.896-7.22-10.256-2.334 3.197-4.463 6.537-6.842 9.7-5.918-7.79-11.553-15.791-17.411-23.627-6.06 7.727-11.493 15.927-17.596 23.621-2.296-3.21-4.408-6.55-6.81-9.684-2.346 3.156-4.415 6.505-6.727 9.683-.284-.03-.85-.093-1.134-.124C49.93 52.764 44.634 44.825 39 37.131c-7.14 9.147-13.578 18.824-20.761 27.936-2.747-2.922-5.514-5.83-8.056-8.935 9.759-13.03 19.251-26.258 28.967-39.32zm0 0" fill="none" stroke-width=".1" stroke="#ffcb04" stroke-miterlimit="10"/><path d="M39.15 16.812c6.05 7.787 11.326 16.146 17.156 24.1 2.563-3.204 4.865-6.605 7.396-9.832 2.166 3.517 4.25 7.083 6.432 10.59 6.11-7.614 11.513-15.77 17.626-23.381 5.833 7.748 11.426 15.676 17.378 23.333 2.331-3.443 4.347-7.084 6.604-10.574 2.393 3.298 4.787 6.597 7.265 9.834 5.673-7.663 10.945-15.617 16.486-23.37l1.115-.22c9.376 12.944 19.077 25.68 28.255 38.76-1.66 3.573-5.321 5.985-7.877 8.996-7-9.235-13.56-18.798-20.66-27.956-5.791 7.98-11.122 16.293-17.12 24.12-2.417-3.413-4.733-6.896-7.22-10.256-2.334 3.197-4.463 6.537-6.842 9.7-5.918-7.79-11.553-15.791-17.411-23.627-6.06 7.727-11.493 15.927-17.596 23.621-2.296-3.21-4.408-6.55-6.81-9.684-2.346 3.156-4.415 6.505-6.727 9.683-.284-.03-.85-.093-1.134-.124C49.93 52.764 44.634 44.825 39 37.131c-7.14 9.147-13.578 18.824-20.761 27.936-2.747-2.922-5.514-5.83-8.056-8.935 9.759-13.03 19.251-26.258 28.967-39.32zm0 0" fill="#ffcb04"/><path d="M25.51 70.704c12.164-.367 24.34-.02 36.509-.184 2.021.118 4.598-.477 5.914 1.525 5.14 5.764 10.318 11.495 15.487 17.234-10.502 11.525-22.095 22.016-32.787 33.36-3.576 3.467-4.35 9.716-.692 13.408 4.255 4.161 8.247 8.575 12.208 13.015-1.566 1.705-3.188 3.355-4.776 5.04 1.547 1.627 3.023 3.344 4.776 4.76 2.136-.361 3.365-2.807 5.025-4.106 5.904 5.872 11.384 12.16 17.019 18.29-1.232 1.41-2.482 2.802-3.73 4.198 2.294 2.526 4.686 4.973 7.309 7.165 2.43-2.357 4.835-4.742 7.11-7.25-1.27-1.363-2.546-2.716-3.808-4.082 5.739-6.03 11.15-12.362 16.974-18.311 1.663 1.415 3.253 2.915 4.919 4.331a392.47 392.47 0 005.042-5.07c-1.581-1.677-3.193-3.324-4.756-5.014 3.91-4.345 7.851-8.666 12.021-12.764 2.675-2.632 3.234-6.928 1.746-10.299-1.13-2.383-3.128-4.176-4.939-6.031-10.15-9.991-20.055-20.225-30.168-30.253 5.346-6.649 11.272-12.817 17.027-19.112 13.593.1 27.194-.221 40.782.17-3.287 4.024-7.263 7.395-10.937 11.048-2.996 2.756-5.657 5.895-8.926 8.34-2.16.325-4.354.214-6.53.233-.176-3.005-.458-6.585-3.38-8.263-4.272-2.88-10.457.834-10.28 5.887-.369 2.307 1.512 3.928 2.935 5.429 13.117 12.916 25.993 26.077 39.147 38.956-4.025 5.023-8.594 9.57-12.806 14.434-4.089-1.523-8.865-2-12.168 1.405 1.665 2.09 3.528 4.006 5.413 5.898-5.59 6.564-11.466 12.89-17.29 19.25-1.39-1.2-2.758-2.42-4.127-3.637a61.707 61.707 0 00-5.079 5.101c1.343 1.417 2.69 2.831 4.02 4.263-7.192 8.231-14.584 16.287-21.92 24.39-7.651-7.866-14.83-16.193-22.142-24.375 1.328-1.437 2.666-2.865 3.996-4.298-1.598-1.68-3.221-3.336-4.834-5-1.552 1.11-3.013 2.34-4.56 3.458-5.653-6.413-11.54-12.616-17.08-19.126 1.78-1.824 3.584-3.621 5.38-5.427-2.829-4.19-8.09-3.302-12.213-1.95-4.227-4.67-8.363-9.423-12.667-14.023 11.874-12.775 24.637-24.725 36.86-37.175 2.14-2.41 5.894-4.515 5.098-8.289-.306-4.808-6.403-7.986-10.373-5.024-2.895 1.638-3.088 5.202-3.163 8.145-2.912-.27-6.567.828-8.627-1.882-5.894-6.022-12.25-11.591-17.96-17.788zm0 0" fill="none" stroke-width=".1" stroke="#ffcb04" stroke-miterlimit="10"/><path d="M25.51 70.704c12.164-.367 24.34-.02 36.509-.184 2.021.118 4.598-.477 5.914 1.525 5.14 5.764 10.318 11.495 15.487 17.234-10.502 11.525-22.095 22.016-32.787 33.36-3.576 3.467-4.35 9.716-.692 13.408 4.255 4.161 8.247 8.575 12.208 13.015-1.566 1.705-3.188 3.355-4.776 5.04 1.547 1.627 3.023 3.344 4.776 4.76 2.136-.361 3.365-2.807 5.025-4.106 5.904 5.872 11.384 12.16 17.019 18.29-1.232 1.41-2.482 2.802-3.73 4.198 2.294 2.526 4.686 4.973 7.309 7.165 2.43-2.357 4.835-4.742 7.11-7.25-1.27-1.363-2.546-2.716-3.808-4.082 5.739-6.03 11.15-12.362 16.974-18.311 1.663 1.415 3.253 2.915 4.919 4.331a392.47 392.47 0 005.042-5.07c-1.581-1.677-3.193-3.324-4.756-5.014 3.91-4.345 7.851-8.666 12.021-12.764 2.675-2.632 3.234-6.928 1.746-10.299-1.13-2.383-3.128-4.176-4.939-6.031-10.15-9.991-20.055-20.225-30.168-30.253 5.346-6.649 11.272-12.817 17.027-19.112 13.593.1 27.194-.221 40.782.17-3.287 4.024-7.263 7.395-10.937 11.048-2.996 2.756-5.657 5.895-8.926 8.34-2.16.325-4.354.214-6.53.233-.176-3.005-.458-6.585-3.38-8.263-4.272-2.88-10.457.834-10.28 5.887-.369 2.307 1.512 3.928 2.935 5.429 13.117 12.916 25.993 26.077 39.147 38.956-4.025 5.023-8.594 9.57-12.806 14.434-4.089-1.523-8.865-2-12.168 1.405 1.665 2.09 3.528 4.006 5.413 5.898-5.59 6.564-11.466 12.89-17.29 19.25-1.39-1.2-2.758-2.42-4.127-3.637a61.707 61.707 0 00-5.079 5.101c1.343 1.417 2.69 2.831 4.02 4.263-7.192 8.231-14.584 16.287-21.92 24.39-7.651-7.866-14.83-16.193-22.142-24.375 1.328-1.437 2.666-2.865 3.996-4.298-1.598-1.68-3.221-3.336-4.834-5-1.552 1.11-3.013 2.34-4.56 3.458-5.653-6.413-11.54-12.616-17.08-19.126 1.78-1.824 3.584-3.621 5.38-5.427-2.829-4.19-8.09-3.302-12.213-1.95-4.227-4.67-8.363-9.423-12.667-14.023 11.874-12.775 24.637-24.725 36.86-37.175 2.14-2.41 5.894-4.515 5.098-8.289-.306-4.808-6.403-7.986-10.373-5.024-2.895 1.638-3.088 5.202-3.163 8.145-2.912-.27-6.567.828-8.627-1.882-5.894-6.022-12.25-11.591-17.96-17.788zm0 0" fill="#ffcb04"/><path d="M87.142 97.1l.712-.057c4.826 4.507 9.362 9.339 13.922 14.12-4.689 4.987-9.438 9.932-14.416 14.63-4.703-4.936-9.605-9.682-14.247-14.676 4.702-4.642 9.087-9.636 14.029-14.016zm0 0" fill="none" stroke-width=".1" stroke="#ffcb04" stroke-miterlimit="10"/><path d="M87.142 97.1l.712-.057c4.826 4.507 9.362 9.339 13.922 14.12-4.689 4.987-9.438 9.932-14.416 14.63-4.703-4.936-9.605-9.682-14.247-14.676 4.702-4.642 9.087-9.636 14.029-14.016zm0 0" fill="#ffcb04"/><path d="M68.682 115.716c1.19-1.324 2.27.773 3.165 1.403 3.919 4.257 8.22 8.15 11.982 12.552a1303.79 1303.79 0 00-14.137 14.426c-5.184-4.45-9.584-9.714-14.545-14.402 4.322-4.837 8.946-9.403 13.535-13.979zm0 0" fill="none" stroke-width=".1" stroke="#ffcb04" stroke-miterlimit="10"/><path d="M68.682 115.716c1.19-1.324 2.27.773 3.165 1.403 3.919 4.257 8.22 8.15 11.982 12.552a1303.79 1303.79 0 00-14.137 14.426c-5.184-4.45-9.584-9.714-14.545-14.402 4.322-4.837 8.946-9.403 13.535-13.979zm0 0" fill="#ffcb04"/><path d="M91.555 129.945a323.951 323.951 0 0114.355-14.606c4.788 4.843 9.616 9.65 14.27 14.623-4.783 4.864-9.477 9.816-14.305 14.636-4.867-4.79-9.64-9.68-14.32-14.653zm0 0" fill="none" stroke-width=".1" stroke="#ffcb04" stroke-miterlimit="10"/><path d="M91.555 129.945a323.951 323.951 0 0114.355-14.606c4.788 4.843 9.616 9.65 14.27 14.623-4.783 4.864-9.477 9.816-14.305 14.636-4.867-4.79-9.64-9.68-14.32-14.653zm0 0" fill="#ffcb04"/><path d="M0 130.35c1.07 6.705 1.758 13.5 3.633 20.047 6.076 22.1 21.415 41.371 41.39 52.546 10.621 6.161 22.62 9.32 34.694 11.057H0v-83.65zm0 0" fill="none" stroke-width=".1" stroke="#fff" stroke-miterlimit="10"/><path d="M0 130.35c1.07 6.705 1.758 13.5 3.633 20.047 6.076 22.1 21.415 41.371 41.39 52.546 10.621 6.161 22.62 9.32 34.694 11.057H0v-83.65zm0 0" fill="#fff"/><path d="M73.623 148.203c4.766-4.853 9.445-9.794 14.307-14.55 4.692 5.019 9.874 9.59 14.249 14.898-4.823 4.725-9.448 9.646-14.285 14.357-4.816-4.843-9.76-9.572-14.27-14.705zm0 0" fill="none" stroke-width=".1" stroke="#ffcb04" stroke-miterlimit="10"/><path d="M73.623 148.203c4.766-4.853 9.445-9.794 14.307-14.55 4.692 5.019 9.874 9.59 14.249 14.898-4.823 4.725-9.448 9.646-14.285 14.357-4.816-4.843-9.76-9.572-14.27-14.705zm0 0" fill="#ffcb04"/><path d="M163.367 170.347c6.588-10.978 9.908-23.507 11.633-36.1V214H95.311c6.054-1.011 12.17-1.847 18.03-3.747 20.91-6.379 39.161-20.936 50.026-39.906zm0 0" fill="none" stroke-width=".1" stroke="#fff" stroke-miterlimit="10"/><path d="M163.367 170.347c6.588-10.978 9.908-23.507 11.633-36.1V214H95.311c6.054-1.011 12.17-1.847 18.03-3.747 20.91-6.379 39.161-20.936 50.026-39.906zm0 0" fill="#fff"/><path d="M86.5 140.31l2.127-.07c.204 1.622.392 3.245.585 4.872 1.56.094 3.123.177 4.687.271l-.039 2.2c-1.64.062-3.279.123-4.916.2-.07 3.288-.065 6.577-.188 9.865l-2.349-.08c-.048-3.245-.052-6.49-.129-9.734-1.58-.133-3.157-.248-4.733-.383l-.293-2.013c1.648-.118 3.298-.214 4.95-.313.101-1.607.194-3.211.297-4.815zm0 0" fill="none" stroke-width=".1" stroke="#0066b3" stroke-miterlimit="10"/><path d="M86.5 140.31l2.127-.07c.204 1.622.392 3.245.585 4.872 1.56.094 3.123.177 4.687.271l-.039 2.2c-1.64.062-3.279.123-4.916.2-.07 3.288-.065 6.577-.188 9.865l-2.349-.08c-.048-3.245-.052-6.49-.129-9.734-1.58-.133-3.157-.248-4.733-.383l-.293-2.013c1.648-.118 3.298-.214 4.95-.313.101-1.607.194-3.211.297-4.815zm0 0" fill="#0066b3"/></g></svg>