<svg xmlns="http://www.w3.org/2000/svg" width="231.999" height="40.029" viewBox="0 0 231.999 40.029">
  <g id="лого" transform="translate(-490.001 -29.971)">
    <text id="GRANIT" transform="translate(541 50.185)" fill="#292929" font-size="20" font-family="GothamPro-Bold, Gotham Pro" font-weight="700" letter-spacing="0.1em"><tspan x="0" y="0">GRANIT</tspan></text>
    <text id="Доставка_нерудных_материалов" data-name="Доставка нерудных материалов" transform="translate(542 67)" fill="#969696" font-size="11" font-family="GothamPro-Light, Gotham Pro" font-weight="300"><tspan x="0" y="0">Доставка нерудных материалов</tspan></text>
    <path id="Фигура_1" data-name="Фигура 1" d="M492.742,70C491.011,70,490,68.825,490,66.6V64.229a3,3,0,0,1,2.965-3.027h17.006c2.325,0,3.524,1.124,3.524,2.8v3.374c0,1.749-1.151,2.624-3.524,2.624Zm.392-5.37v1.943a.225.225,0,0,0,.223.228H510.14a.225.225,0,0,0,.223-.228V64.63a.226.226,0,0,0-.223-.229H493.357A.226.226,0,0,0,493.133,64.63ZM515.693,66a.226.226,0,0,1-.223-.229V64.63a.226.226,0,0,1,.223-.229h1.12a.225.225,0,0,0,.223-.228V62.23a.225.225,0,0,0-.223-.228h-1.12a.225.225,0,0,1-.223-.228V60.63a.225.225,0,0,1,.223-.228h12.084a.225.225,0,0,1,.223.228v1.144a.225.225,0,0,1-.223.228h-1.12a.225.225,0,0,0-.223.228v1.944a.225.225,0,0,0,.223.228h1.12a.226.226,0,0,1,.223.229v1.143a.226.226,0,0,1-.223.229Zm11.023-6.4a.218.218,0,0,1-.146-.055l-3.6-3.168a.218.218,0,0,0-.216-.043,2.865,2.865,0,0,1-.949.167,2.147,2.147,0,0,1-.922-.214.221.221,0,0,0-.235.03l-3.905,3.233a.222.222,0,0,1-.14.05l-.455,0a.257.257,0,0,1-.156-.455l3.982-3.3a.228.228,0,0,0,.045-.3,2.5,2.5,0,0,1-.406-1.422.783.783,0,1,1,1.566,0,1.256,1.256,0,0,0,.031.285.222.222,0,0,0,.357.122l0,0a.385.385,0,0,1,.5.008l.172.151a.22.22,0,0,0,.283.008.847.847,0,0,0,.289-.707.972.972,0,0,0-.835-.923.8.8,0,0,1-.653-.79V50.234a.225.225,0,0,0-.223-.228h-.464a.225.225,0,0,1-.219-.184l-1.006-5.143a.226.226,0,0,1,.219-.273h.686a.225.225,0,0,0,.223-.228V39.535a.223.223,0,0,0-.421-.105l-8.951,17.594a.235.235,0,0,0-.025.1v.647a.225.225,0,0,1-.223.228h-2.687a.225.225,0,0,0-.223.228v1.144a.225.225,0,0,1-.223.228h-11.3a.225.225,0,0,1-.223-.228V58.231a.225.225,0,0,0-.223-.228H491.79a.225.225,0,0,1-.223-.228V43.035a.225.225,0,0,1,.223-.228h11.3a.225.225,0,0,1,.223.228v7.427h0l-.886,2.435a.227.227,0,0,0,.209.307h1.244a.223.223,0,0,0,.182-.095l16.195-23.044a.219.219,0,0,1,.3-.062l3.246,2a.23.23,0,0,1,.079.308l-.957,1.713a.225.225,0,0,0-.03.113V44.179a.225.225,0,0,0,.223.228h.676a.226.226,0,0,1,.221.26L523.3,49.81a.225.225,0,0,1-.221.2h-.185v1.549a.228.228,0,0,0,.121.2,2.562,2.562,0,0,1,.742,3.944.231.231,0,0,0,.016.329l3.605,3.172a.229.229,0,0,1-.146.4ZM507.79,50.117l-1.514,2.108a.231.231,0,0,0,.068.332l3.375,1.988a.225.225,0,0,0,.314-.293l-1.861-4.1a.221.221,0,0,0-.383-.039Zm1.884-1.152,1.544,3.764a.221.221,0,0,0,.4.024l1.042-1.877a.232.232,0,0,0-.065-.3l-2.586-1.886a.218.218,0,0,0-.129-.044A.228.228,0,0,0,509.674,48.965ZM494.7,46.235v4.342a.225.225,0,0,0,.223.228h5.035a.225.225,0,0,0,.223-.228V46.235a.226.226,0,0,0-.223-.229h-5.035A.226.226,0,0,0,494.7,46.235Zm16.692-1.1-1.3,1.831-.009.014,2.614,1.737a.225.225,0,0,0,.329-.275l-1.243-3.255a.222.222,0,0,0-.209-.145A.218.218,0,0,0,511.392,45.136Zm1.607-.89,1.188,3.25a.221.221,0,0,0,.408.024l.9-1.79a.23.23,0,0,0-.072-.292l-2.086-1.46a.218.218,0,0,0-.126-.041A.228.228,0,0,0,513,44.246ZM521.69,36.4l-.337.649a.229.229,0,0,0-.026.106v7.029a.225.225,0,0,0,.223.228h.337a.225.225,0,0,0,.223-.228V36.5a.224.224,0,0,0-.226-.228A.215.215,0,0,0,521.69,36.4Zm-6.664,3.521-1.258,1.874a.23.23,0,0,0,.064.32l1.892,1.238a.224.224,0,0,0,.338-.239L515.429,40a.222.222,0,0,0-.219-.181A.217.217,0,0,0,515.027,39.916Zm1.379-1.254.648,3.011a.222.222,0,0,0,.415.059l1.007-1.912a.232.232,0,0,0-.075-.3l-1.656-1.1a.218.218,0,0,0-.121-.037A.227.227,0,0,0,516.406,38.662Zm2.12-4.3-1.109,1.965a.231.231,0,0,0,.073.306l1.79,1.177a.224.224,0,0,0,.338-.241l-.681-3.142a.221.221,0,0,0-.219-.179A.218.218,0,0,0,518.526,34.359Zm1.463-1.613.537,2.868a.222.222,0,0,0,.417.063l.96-1.862a.232.232,0,0,0-.076-.3l-1.5-1.005a.217.217,0,0,0-.122-.038A.227.227,0,0,0,519.989,32.747Z" fill="#292929"/>
  </g>
</svg>
